<svg fill="none" height="12" viewBox="0 0 12 12" width="12" xmlns="http://www.w3.org/2000/svg">
    <path
        d="M11.362 5.14316L11.3277 5.17311L9.21365 7.01811L9.10077 7.11663L9.13443 7.26263L9.76771 10.0095L9.76786 10.0102C9.7902 10.1059 9.78383 10.2061 9.74953 10.2982C9.71524 10.3903 9.65455 10.4703 9.57505 10.5281C9.49555 10.586 9.40077 10.6191 9.30256 10.6233C9.2044 10.6276 9.10718 10.6028 9.02301 10.5521C9.02296 10.5521 9.02291 10.5521 9.02286 10.552L6.62769 9.09928L6.4979 9.02055L6.36818 9.0994L3.97837 10.552C3.97827 10.5521 3.97818 10.5522 3.97808 10.5522C3.89395 10.6028 3.79677 10.6276 3.69868 10.6233C3.60046 10.6191 3.50568 10.586 3.42618 10.5281C3.34668 10.4703 3.28599 10.3903 3.2517 10.2982C3.21741 10.2061 3.21103 10.1059 3.23337 10.0102L3.23353 10.0095L3.86587 7.26542L3.89949 7.11954L3.78676 7.02103L1.67223 5.17322L1.67223 5.17321L1.671 5.17215C1.59644 5.10785 1.54253 5.02296 1.51602 4.92814C1.48951 4.83331 1.49159 4.73277 1.52199 4.63912C1.5524 4.54548 1.60977 4.46289 1.68693 4.40172C1.76408 4.34055 1.85758 4.30352 1.95569 4.29528L1.95633 4.29522L4.74352 4.05382L4.89407 4.04078L4.9525 3.90141L6.04047 1.30641L6.04063 1.30602C6.07845 1.21539 6.14224 1.13797 6.22397 1.08351C6.30569 1.02906 6.40171 1 6.49991 1C6.59812 1 6.69413 1.02906 6.77586 1.08351C6.85759 1.13797 6.92137 1.21539 6.95919 1.30602L6.95946 1.30666L8.05071 3.90166L8.10922 4.04079L8.25958 4.05382L11.0458 4.29522L11.0465 4.29528C11.1446 4.30352 11.2381 4.34055 11.3152 4.40172C11.3924 4.46289 11.4498 4.54548 11.4802 4.63912C11.5106 4.73277 11.5127 4.83331 11.4861 4.92814C11.4635 5.00932 11.4207 5.08323 11.362 5.14316Z"
        fill="white" fill-opacity="0.1" stroke="#FFBC10" stroke-width="0.5" />
</svg>
