<svg fill="none" height="12" viewBox="0 0 12 12" width="12" xmlns="http://www.w3.org/2000/svg">
    <path
        d="M10.6889 4.96241L10.6633 4.98476L8.54927 6.82976L8.3235 7.02679L8.39082 7.3188L9.0241 10.0657L9.0244 10.067C9.03557 10.1148 9.03238 10.1649 9.01524 10.211C8.99809 10.2571 8.96775 10.2971 8.928 10.326C8.88825 10.3549 8.84086 10.3714 8.79175 10.3736C8.74281 10.3757 8.69433 10.3634 8.65233 10.3382C8.65219 10.3381 8.65204 10.338 8.6519 10.3379L6.25734 8.88552L5.99776 8.72808L5.73833 8.88577L3.34933 10.3379C3.34913 10.338 3.34893 10.3382 3.34873 10.3383C3.30677 10.3634 3.25835 10.3757 3.20948 10.3736C3.16037 10.3714 3.11298 10.3549 3.07324 10.326C3.03349 10.2971 3.00314 10.2571 2.98599 10.211C2.96885 10.1649 2.96566 10.1148 2.97683 10.067L2.97714 10.0656L3.60949 7.32156L3.67672 7.0298L3.45127 6.83278L1.33674 4.98497L1.33674 4.98496L1.33428 4.98284C1.297 4.95069 1.27004 4.90824 1.25679 4.86083C1.24354 4.81342 1.24457 4.76315 1.25978 4.71632C1.27498 4.6695 1.30367 4.62821 1.34224 4.59762C1.38082 4.56704 1.42757 4.54852 1.47662 4.5444L1.4779 4.54429L4.26509 4.30289L4.5662 4.2768L4.68306 3.99807L5.77103 1.40307L5.77135 1.40229C5.79017 1.35719 5.82192 1.31866 5.86259 1.29156C5.90326 1.26446 5.95104 1.25 5.99991 1.25C6.04879 1.25 6.09657 1.26446 6.13724 1.29156C6.17791 1.31866 6.20965 1.35719 6.22847 1.40229L6.22901 1.40357L7.32026 3.99857L7.43727 4.27683L7.738 4.30288L10.5243 4.54429L10.5255 4.5444C10.5746 4.54852 10.6214 4.56704 10.6599 4.59762C10.6985 4.62821 10.7272 4.6695 10.7424 4.71632C10.7576 4.76315 10.7586 4.81342 10.7454 4.86083C10.7348 4.89878 10.7154 4.93355 10.6889 4.96241Z"
        fill="#FFBC10" stroke="#FFBC10" />
</svg>
